{"title":"The Final Destination 3D (Stereoscopic Side-by-Side MKV)","uid":6671821,"size":4589080200,"categoryP":"video","categoryS":"3d","magnet":"?xt=urn:btih:b8b3fdd1d01abd229f34adcd5eeb30d13c572065&amp;dn=The+Final+Destination+3D+%28Stereoscopic+Side-by-Side+MKV%29&amp;tr=udp%3A%2F%2Ftracker.openbittorrent.com%3A80&amp;tr=udp%3A%2F%2Fopen.demonii.com%3A1337&amp;tr=udp%3A%2F%2Ftracker.coppersurfer.tk%3A6969&amp;tr=udp%3A%2F%2Fexodus.desync.com%3A6969","seeders":0,"leechers":0,"uploader":"L3G3ND","files":2,"time":1315902303,"description":"This is a stereoscopic 3D rip of The Final Destination, for new 3D TVs or computers with Nvidia 3D Vision. Tested with Stereoscopic Player. Enjoy!\n\nTitle: The Final Destination (2009)\nRated: R\nRuntime: 82 Minutes\nGenre: Horror | Thriller\n\nDescription:\nIn a car race in McKinley Speedway, twenty-something Nick has a premonition of a deadly car crash with many casualties in the audience and convinces his girlfriend Lori and his friends Hunt and Janet to leave the place. They are followed by the security guard; a racist guy; a mother with her children and a mechanic, that are saved from death. When the racist guy and the mother die in mysterious and creepy incidents, Nick and Lori research and find many similar cases in Internet. They try to lure The Ripper to break the chain of deadly events and survive, but destiny does not help them.\n-From IMDB Page: http://www.imdb.com/title/tt1144884/\n\nGeneral\nUnique ID : 250366656423889315275528409864185801819 (0xBC5ADD33944E2F6289770F75FAE76C5B)\nComplete name : [filepath]\\The Final Destination 3D.mkv\nFormat : Matroska\nFile size : 4.27 GiB\nDuration : 1h 14mn\nOverall bit rate : 8 171 Kbps\nMovie name : Final dest\nEncoded date : UTC 2010-11-21 13:47:02\nWriting application : mkvmerge v4.3.0 ('Escape from the Island') built on Sep 5 2010 10:30:51\nWriting library : libebml v1.0.0 + libmatroska v1.0.0\n\nVideo\nID : 1\nFormat : AVC\nFormat/Info : Advanced Video Codec\nFormat profile : &lt;a class=&quot;__cf_email__&quot; href=&quot;/cdn-cgi/l/email-protection&quot; data-cfemail=&quot;064b676f68464a322836&quot;&gt;[email&amp;#160;protected]&lt;/a&gt;&lt;script data-cfhash='f9e31' type=&quot;text/javascript&quot;&gt;\n/* &lt;![CDATA[ */!function(){try{var t=&quot;currentScript&quot;in document?document.currentScript:function(){for(var t=document.getElementsByTagName(&quot;script&quot;),e=t.length;e--;)if(t[e].getAttribute(&quot;data-cfhash&quot;))return t[e]}();if(t&amp;&amp;t.previousSibling){var e,r,n,i,c=t.previousSibling,a=c.getAttribute(&quot;data-cfemail&quot;);if(a){for(e=&quot;&quot;,r=parseInt(a.substr(0,2),16),n=2;a.length-n;n+=2)i=parseInt(a.substr(n,2),16)^r,e+=String.fromCharCode(i);e=document.createTextNode(e),c.parentNode.replaceChild(e,c)}t.parentNode.removeChild(t);}}catch(u){}}()/* ]]&gt; */&lt;/script&gt;\nFormat settings, CABAC : Yes\nFormat settings, ReFrames : 1 frame\nFormat settings, GOP : M=1, N=15\nCodec ID : V_MPEG4/ISO/AVC\nDuration : 1h 14mn\nBit rate mode : Variable\nBit rate : 7 625 Kbps\nMaximum bit rate : 11.7 Mbps\nWidth : 1 920 pixels\nHeight : 1 080 pixels\nDisplay aspect ratio : 16:9\nFrame rate : 25.000 fps\nColor space : YUV\nChroma subsampling : 4:2:0\nBit depth : 8 bits\nScan type : Progressive\nBits/(Pixel*Frame) : 0.147\nStream size : 3.99 GiB (93%)\nLanguage : English\n\nAudio\nID : 2\nFormat : AC-3\nFormat/Info : Audio Coding 3\nMode extension : CM (complete main)\nCodec ID : A_AC3\nDuration : 1h 14mn\nBit rate mode : Constant\nBit rate : 384 Kbps\nChannel(s) : 6 channels\nChannel positions : Front: L C R, Side: L R, LFE\nSampling rate : 48.0 KHz\nBit depth : 16 bits\nCompression mode : Lossy\nStream size : 206 MiB (5%)\nLanguage : English","torrent":{"xt":"urn:btih:b8b3fdd1d01abd229f34adcd5eeb30d13c572065","amp;dn":"The+Final+Destination+3D+%28Stereoscopic+Side-by-Side+MKV%29","amp;tr":["udp%3A%2F%2Ftracker.openbittorrent.com%3A80","udp%3A%2F%2Fopen.demonii.com%3A1337","udp%3A%2F%2Ftracker.coppersurfer.tk%3A6969","udp%3A%2F%2Fexodus.desync.com%3A6969"],"infoHash":"b8b3fdd1d01abd229f34adcd5eeb30d13c572065","infoHashBuffer":{"type":"Buffer","data":[184,179,253,209,208,26,189,34,159,52,173,205,94,235,48,209,60,87,32,101]},"announce":[],"urlList":[]}}